<svg width="159" height="41" viewBox="0 0 159 41" fill="none" xmlns="http://www.w3.org/2000/svg">
<path opacity="0.3" d="M31.0581 18.5626C16.1977 9.84477 3.81413 36.9453 3 37.2678C3 37.2678 14.2234 35.3972 19.4871 34.4516L32.9287 40.3855H47.893H83.4331H114.609H138.926H148.278H150.149L151.396 39.1385L147.326 31.8706C128.296 9.0584 115.52 -6.97652 107.971 3.04503C94.8846 20.3842 89.0246 31.4599 66.3184 15.3434C52.8607 5.79182 48.9021 29.0271 31.0581 18.5626Z" fill="url(#paint0_linear_2057_29308)"/>
<g opacity="0.3">
<path d="M50.6358 25.713C35.7754 16.9953 0.824657 39.9332 0 40.2713C0 40.2713 26 30.5 37.5614 40.2713H108.193H135.213H150.5L153 39L155.137 36.6444L156.5 34.5L158.255 32.9033C147.655 13.5744 127.523 20.143 116.913 26.6264C106.518 32.9719 100.718 25.0659 84.1248 15.4122C70.4808 7.47075 68.4797 36.1776 50.6358 25.713Z" fill="url(#paint1_linear_2057_29308)"/>
<path d="M50.6358 25.713C35.7754 16.9953 0.824657 39.9332 0 40.2713C0 40.2713 26 30.5 37.5614 40.2713H108.193H135.213H150.5L153 39L155.137 36.6444L156.5 34.5L158.255 32.9033C147.655 13.5744 127.523 20.143 116.913 26.6264C106.518 32.9719 100.718 25.0659 84.1248 15.4122C70.4808 7.47075 68.4797 36.1776 50.6358 25.713Z" fill="url(#paint2_linear_2057_29308)" fill-opacity="0.2"/>
</g>
<defs>
<linearGradient id="paint0_linear_2057_29308" x1="95.6015" y1="-24.2635" x2="89.2747" y2="29.5147" gradientUnits="userSpaceOnUse">
<stop stop-color="white" stop-opacity="0.84"/>
<stop offset="1" stop-color="white" stop-opacity="0"/>
</linearGradient>
<linearGradient id="paint1_linear_2057_29308" x1="107.5" y1="-9.00001" x2="105.445" y2="39.0728" gradientUnits="userSpaceOnUse">
<stop stop-color="#0CF207"/>
<stop offset="0.567708" stop-color="#96F994" stop-opacity="0.6"/>
<stop offset="1" stop-color="white" stop-opacity="0"/>
</linearGradient>
<linearGradient id="paint2_linear_2057_29308" x1="156" y1="30.5" x2="37" y2="48.5" gradientUnits="userSpaceOnUse">
<stop stop-color="#0CF207" stop-opacity="0.5"/>
<stop offset="1" stop-color="#0CF207" stop-opacity="0.11"/>
</linearGradient>
</defs>
</svg>
