<svg width="172" height="41" viewBox="0 0 172 41" fill="none" xmlns="http://www.w3.org/2000/svg">
<path opacity="0.3" d="M44.0581 18.5626C29.1977 9.84477 10.8141 36.6775 10 37C10 37 27.2234 35.3972 32.4871 34.4516L45.9287 40.3855H60.893H96.4331H127.609H151.926H161.278H163.149L164.396 39.1385L160.326 31.8706C141.296 9.0584 128.52 -6.97652 120.971 3.04503C107.885 20.3842 102.025 31.4599 79.3184 15.3434C65.8607 5.79182 61.9021 29.0271 44.0581 18.5626Z" fill="url(#paint0_linear_2057_28883)"/>
<g opacity="0.3">
<path d="M63.6358 25.713C48.7754 16.9953 1.32466 39.9332 0.5 40.2713C0.5 40.2713 27 36.6444 50.5614 40.2713H121.193H148.213H161.902L168.137 36.6444L171.255 32.9033C160.655 13.5744 140.523 20.143 129.913 26.6264C119.518 32.9719 113.718 25.0659 97.1248 15.4122C83.4808 7.47075 81.4797 36.1776 63.6358 25.713Z" fill="url(#paint1_linear_2057_28883)"/>
<path d="M63.6358 25.713C48.7754 16.9953 1.32466 39.9332 0.5 40.2713C0.5 40.2713 27 36.6444 50.5614 40.2713H121.193H148.213H161.902L168.137 36.6444L171.255 32.9033C160.655 13.5744 140.523 20.143 129.913 26.6264C119.518 32.9719 113.718 25.0659 97.1248 15.4122C83.4808 7.47075 81.4797 36.1776 63.6358 25.713Z" fill="url(#paint2_linear_2057_28883)" fill-opacity="0.2"/>
</g>
<defs>
<linearGradient id="paint0_linear_2057_28883" x1="108.601" y1="-24.2635" x2="102.275" y2="29.5147" gradientUnits="userSpaceOnUse">
<stop stop-color="white" stop-opacity="0.84"/>
<stop offset="1" stop-color="white" stop-opacity="0"/>
</linearGradient>
<linearGradient id="paint1_linear_2057_28883" x1="121.5" y1="-11.5" x2="119.5" y2="40" gradientUnits="userSpaceOnUse">
<stop stop-color="#008CFF"/>
<stop offset="0.718825" stop-color="#9AD1FF" stop-opacity="0.74"/>
<stop offset="1" stop-color="white" stop-opacity="0"/>
</linearGradient>
<linearGradient id="paint2_linear_2057_28883" x1="115" y1="8.5" x2="32.5" y2="53.5" gradientUnits="userSpaceOnUse">
<stop stop-color="#008CFF"/>
<stop offset="1" stop-color="#008CFF" stop-opacity="0"/>
</linearGradient>
</defs>
</svg>
