<svg xmlns="http://www.w3.org/2000/svg" xmlns:xlink="http://www.w3.org/1999/xlink" width="269" height="176.495" viewBox="0 0 269 176.495"><defs><style>.a{fill:url(#a);}.b,.h{fill:#cfe0ff;}.b{stroke:rgba(0,0,0,0);stroke-miterlimit:10;opacity:0.5;}.c{fill:#0051e0;}.d{fill:url(#b);}.e{fill:#0448bf;}.f{fill:#5590ff;}.g{fill:#f7cf06;}.i{fill:url(#d);}.j{fill:#5690ff;}</style><linearGradient id="a" x1="0.5" y1="0.193" x2="0.5" y2="0.536" gradientUnits="objectBoundingBox"><stop offset="0" stop-color="#e8f2ff"/><stop offset="1" stop-color="#fcfcfc" stop-opacity="0"/></linearGradient><linearGradient id="b" x1="1.424" y1="1.099" x2="0.5" y2="1" gradientUnits="objectBoundingBox"><stop offset="0" stop-color="#0051e0"/><stop offset="1" stop-color="#5590ff"/></linearGradient><radialGradient id="d" cx="0.5" cy="0.5" r="0.826" gradientUnits="objectBoundingBox"><stop offset="0" stop-color="#fff"/><stop offset="0.291" stop-color="#f6f9ff"/><stop offset="1" stop-color="#cfe0ff"/></radialGradient></defs><g transform="translate(-550 -210.505)"><ellipse class="a" cx="134.5" cy="50" rx="134.5" ry="50" transform="translate(550 287)"/><path class="b" d="M74.909,30.365c-1.4-.177-3.147-.577-4.839-.966-4.493-1.033-8.991-2.066-13.537-3.169C46.5,23.793,36.244,21.02,26.138,18.011,17.184,15.344,7.945,12.341,1.2,9.271A3.872,3.872,0,0,1,.019,8.6c-.089-.145.154-.2.407-.236,5.3-.861,15.735.667,27.343,3.4,5.542,1.3,11.352,2.88,16.994,4.6,2.364.721,4.734,1.377,7.067,2.133s4.52,1.608,6.619,2.413c2.451.94,4.972,1.9,7.154,2.852a101.176,101.176,0,0,1,9.973,4.89c2.08-1.844,7.7-5.118,10.132-6.5,2.07-1.178,4.476-2.392,6.817-3.585,2-1.019,4.085-2.094,6.33-3.091s4.53-1.9,6.8-2.859c5.432-2.3,11.045-4.476,16.421-6.351,11.259-3.928,21.48-6.538,26.839-6.235.255.014.5.04.429.192a3.921,3.921,0,0,1-1.1.794c-6.387,3.757-15.262,7.711-23.888,11.3-9.737,4.049-19.644,7.879-29.369,11.349-4.407,1.574-8.771,3.071-13.132,4.568-1.642.564-3.341,1.144-4.711,1.466l-.115.027c.432.463.29.753-.738.753A11.38,11.38,0,0,1,74.909,30.365Z" transform="translate(608.201 303.503)"/><path class="c" d="M50.716,300.6l72.1,21.791V295.18L45.5,280.743Z" transform="translate(561.359 11.002)"/><path class="d" d="M82.349,298.009l73.94-19.841-4.347,17.478L82.349,325.218Z" transform="translate(601.83 8.173)"/><path class="e" d="M45.5,287.874l68.457-13.624,82.8,8.22-73.94,19.841Z" transform="translate(561.359 3.871)"/><path class="f" d="M45.871,282.15,119.154,297.6v18.6l-69.666-20.27Z" transform="translate(561.768 12.548)"/><path class="e" d="M45.81,280.133l68.951-11.348,81.187,8.324L122.22,290.953Z" transform="translate(562.172 -9.523)"/><path class="c" d="M51.086,290.453l72.1,12.94V278.971L45.871,270.6Z" transform="translate(561.768 -0.142)"/><path class="d" d="M82.718,280.5l73.164-11.266-4.347,17.478L82.718,304.9Z" transform="translate(602.236 -1.643)"/><path class="f" d="M46.24,272l73.283,10.49v14.7l-69.666-11.42Z" transform="translate(562.178 1.405)"/><path class="g" d="M85.86,281.863V296l47-11.119,1.592-12.769Z" transform="translate(605.033 1.524)"/><path class="g" d="M85.574,295.559v16.679L129.5,294.492l2.371-11.862Z" transform="translate(605.373 13.076)"/><path class="h" d="M14.758.86C8.386,2.5,2.791,6.521.194,13.047a1.729,1.729,0,0,0-.174.969,1.715,1.715,0,0,0,.707.921c3.922,3.11,9.117,4.083,14.116,4.354a62.85,62.85,0,0,0,16.846-1.364c2.5-.55,4.967-1.253,7.43-1.954a7.091,7.091,0,0,0,2.631-1.156C45.779,11.5,38.363,5.7,35.988,4.012a25.576,25.576,0,0,0-4.1-2.195A16.009,16.009,0,0,0,28.127.4C26.816.165,25.5.23,24.178.113A27.978,27.978,0,0,0,14.758.86Z" transform="matrix(0.996, 0.087, -0.087, 0.996, 588.859, 300.82)"/><path class="h" d="M30.23,44.748c1.175-7.486,6.51-15.979,9.328-20.05a.967.967,0,0,0-1.092-1.492A24.74,24.74,0,0,0,26.327,33.289a.923.923,0,0,1-1.717-.558A143.817,143.817,0,0,0,22.37.793.923.923,0,0,0,20.554.732a165.514,165.514,0,0,0-4.928,30.957A.924.924,0,0,1,13.8,31.9C11.716,24.17,9.25,16.724,7.674,12.173a.926.926,0,0,0-1.808.311A159.187,159.187,0,0,0,6.943,36.777a.932.932,0,0,1-1.728.646c-1.236-2.271-2.428-4.876-3.429-7.233a.931.931,0,0,0-1.776.533L1.784,44.355a.967.967,0,0,0,.478.731c1.9,1.059,10.362,4.9,27.273.461A.968.968,0,0,0,30.23,44.748Z" transform="matrix(0.985, -0.174, 0.174, 0.985, 734.064, 272.163)"/><path class="i" d="M204,141.321a10.376,10.376,0,0,0-5.442-9.131,8.12,8.12,0,0,0-8.2-11.968,19.457,19.457,0,0,0-27.206-10.662,14.925,14.925,0,0,0-10.545-4.4,15.208,15.208,0,0,0-13.75,8.989c-.409-.03-.82-.05-1.236-.05a16.826,16.826,0,0,0-14.886,24.671,11.025,11.025,0,0,0,7.659,19.949A18.994,18.994,0,0,0,160,169.632a10.36,10.36,0,0,0,17.6-3.213A16.82,16.82,0,0,0,198.04,150.7,10.37,10.37,0,0,0,204,141.321Z" transform="translate(522.68 105.342)"/><path class="j" d="M258.077,167.966q0,8.149-6.579,11.946-4.942,2.815-5.367,5.695-.1.753-.163,1.5a1.085,1.085,0,0,1-1.178.688,20.1,20.1,0,0,0-4.745.392,1.581,1.581,0,0,1-.459.1q-1.178,0-1.178-3.207,0-2.781,3.224-6.889t3.223-6.889q0-4.222-4.483-4.222a18,18,0,0,0-7.4,2.226c-1.319.786-4.395-.49-3.876-6.03a6.312,6.312,0,0,1,1.713-3.984c1.812-1.788,2.981-2.3,6.319-3.11a29.623,29.623,0,0,1,7-.883,14.645,14.645,0,0,1,9.818,3.305A11.658,11.658,0,0,1,258.077,167.966Zm-8.87,28.146a6.088,6.088,0,0,1-1.751,4.353,5.892,5.892,0,0,1-8.542,0,6.086,6.086,0,0,1-1.751-4.353,5.921,5.921,0,0,1,1.751-4.3,6,6,0,0,1,8.542,0A5.923,5.923,0,0,1,249.207,196.111Z" transform="translate(438.473 65.812)"/></g></svg>